<svg xmlns="http://www.w3.org/2000/svg" xmlns:xlink="http://www.w3.org/1999/xlink" contentStyleType="text/css" data-diagram-type="CLASS" height="915px" preserveAspectRatio="none" style="width:651px;height:915px;background:#FFFFFF;" version="1.1" viewBox="0 0 651 915" width="651px" zoomAndPan="magnify"><?plantuml 1.2026.3beta4?><defs/><g><!--class Employee--><g class="entity" data-qualified-name="Employee" data-source-line="1" id="ent0002"><rect fill="#F1F1F1" height="210.9688" rx="2.5" ry="2.5" style="stroke:#181818;stroke-width:0.5;" width="230.5928" x="394.25" y="212.78"/><ellipse cx="470.6279" cy="228.78" fill="#ADD1B2" rx="11" ry="11" style="stroke:#181818;stroke-width:1;"/><path d="M473.5967,234.4206 Q473.0186,234.7175 472.3779,234.8581 Q471.7373,235.0144 471.0342,235.0144 Q468.5342,235.0144 467.2061,233.3737 Q465.8936,231.7175 465.8936,228.5925 Q465.8936,225.4675 467.2061,223.8112 Q468.5342,222.155 471.0342,222.155 Q471.7373,222.155 472.3779,222.3112 Q473.0342,222.4675 473.5967,222.7644 L473.5967,225.4831 Q472.9717,224.905 472.3779,224.6394 Q471.7842,224.3581 471.1592,224.3581 Q469.8154,224.3581 469.1279,225.4362 Q468.4404,226.4987 468.4404,228.5925 Q468.4404,230.6862 469.1279,231.7644 Q469.8154,232.8269 471.1592,232.8269 Q471.7842,232.8269 472.3779,232.5612 Q472.9717,232.28 473.5967,231.7019 L473.5967,234.4206 Z " fill="#000000"/><text fill="#000000" font-family="sans-serif" font-size="14" lengthAdjust="spacing" textLength="69.3369" x="491.1279" y="233.6267">Employee</text><line style="stroke:#181818;stroke-width:0.5;" x1="395.25" x2="623.8428" y1="244.78" y2="244.78"/><g data-visibility-modifier="PRIVATE_FIELD"><rect fill="none" height="6" style="stroke:#C82930;stroke-width:1;" width="6" x="402.25" y="255.4284"/></g><text fill="#000000" font-family="sans-serif" font-size="14" lengthAdjust="spacing" textLength="40.1953" x="414.25" y="261.7751">id: int</text><g data-visibility-modifier="PRIVATE_FIELD"><rect fill="none" height="6" style="stroke:#C82930;stroke-width:1;" width="6" x="402.25" y="271.7253"/></g><text fill="#000000" font-family="sans-serif" font-size="14" lengthAdjust="spacing" textLength="112.2393" x="414.25" y="278.072">fullName: string</text><g data-visibility-modifier="PRIVATE_FIELD"><rect fill="none" height="6" style="stroke:#C82930;stroke-width:1;" width="6" x="402.25" y="288.0222"/></g><text fill="#000000" font-family="sans-serif" font-size="14" lengthAdjust="spacing" textLength="87.9648" x="414.25" y="294.3689">email: string</text><g data-visibility-modifier="PRIVATE_FIELD"><rect fill="none" height="6" style="stroke:#C82930;stroke-width:1;" width="6" x="402.25" y="304.3191"/></g><text fill="#000000" font-family="sans-serif" font-size="14" lengthAdjust="spacing" textLength="106.8047" x="414.25" y="310.6657">startDate: date</text><g data-visibility-modifier="PRIVATE_FIELD"><rect fill="none" height="6" style="stroke:#C82930;stroke-width:1;" width="6" x="402.25" y="320.6159"/></g><text fill="#000000" font-family="sans-serif" font-size="14" lengthAdjust="spacing" textLength="104.8086" x="414.25" y="326.9626">position: string</text><g data-visibility-modifier="PRIVATE_FIELD"><rect fill="none" height="6" style="stroke:#C82930;stroke-width:1;" width="6" x="402.25" y="336.9128"/></g><text fill="#000000" font-family="sans-serif" font-size="14" lengthAdjust="spacing" textLength="92.374" x="414.25" y="343.2595">status: string</text><g data-visibility-modifier="PRIVATE_FIELD"><rect fill="none" height="6" style="stroke:#C82930;stroke-width:1;" width="6" x="402.25" y="353.2097"/></g><text fill="#000000" font-family="sans-serif" font-size="14" lengthAdjust="spacing" textLength="173.0518" x="414.25" y="359.5564">equipment: List&lt;string&gt;</text><line style="stroke:#181818;stroke-width:0.5;" x1="395.25" x2="623.8428" y1="366.8581" y2="366.8581"/><g data-visibility-modifier="PUBLIC_METHOD"><ellipse cx="405.25" cy="380.5066" fill="#84BE84" rx="3" ry="3" style="stroke:#038048;stroke-width:1;"/></g><text fill="#000000" font-family="sans-serif" font-size="14" lengthAdjust="spacing" textLength="73.9512" x="414.25" y="383.8532">fillInData()</text><g data-visibility-modifier="PUBLIC_METHOD"><ellipse cx="405.25" cy="396.8034" fill="#84BE84" rx="3" ry="3" style="stroke:#038048;stroke-width:1;"/></g><text fill="#000000" font-family="sans-serif" font-size="14" lengthAdjust="spacing" textLength="82.9883" x="414.25" y="400.1501">viewTasks()</text><g data-visibility-modifier="PUBLIC_METHOD"><ellipse cx="405.25" cy="413.1003" fill="#84BE84" rx="3" ry="3" style="stroke:#038048;stroke-width:1;"/></g><text fill="#000000" font-family="sans-serif" font-size="14" lengthAdjust="spacing" textLength="204.5928" x="414.25" y="416.447">confirmEquipmentReceived()</text></g><!--class HRManager--><g class="entity" data-qualified-name="HRManager" data-source-line="14" id="ent0003"><rect fill="#F1F1F1" height="145.7813" rx="2.5" ry="2.5" style="stroke:#181818;stroke-width:0.5;" width="151.7471" x="433.67" y="7"/><ellipse cx="465.8267" cy="23" fill="#ADD1B2" rx="11" ry="11" style="stroke:#181818;stroke-width:1;"/><path d="M468.7954,28.6406 Q468.2173,28.9375 467.5767,29.0781 Q466.9361,29.2344 466.2329,29.2344 Q463.7329,29.2344 462.4048,27.5938 Q461.0923,25.9375 461.0923,22.8125 Q461.0923,19.6875 462.4048,18.0313 Q463.7329,16.375 466.2329,16.375 Q466.9361,16.375 467.5767,16.5313 Q468.2329,16.6875 468.7954,16.9844 L468.7954,19.7031 Q468.1704,19.125 467.5767,18.8594 Q466.9829,18.5781 466.3579,18.5781 Q465.0142,18.5781 464.3267,19.6563 Q463.6392,20.7188 463.6392,22.8125 Q463.6392,24.9063 464.3267,25.9844 Q465.0142,27.0469 466.3579,27.0469 Q466.9829,27.0469 467.5767,26.7813 Q468.1704,26.5 468.7954,25.9219 L468.7954,28.6406 Z " fill="#000000"/><text fill="#000000" font-family="sans-serif" font-size="14" lengthAdjust="spacing" textLength="81.6211" x="483.6393" y="27.8467">HRManager</text><line style="stroke:#181818;stroke-width:0.5;" x1="434.67" x2="584.4171" y1="39" y2="39"/><g data-visibility-modifier="PRIVATE_FIELD"><rect fill="none" height="6" style="stroke:#C82930;stroke-width:1;" width="6" x="441.67" y="49.6484"/></g><text fill="#000000" font-family="sans-serif" font-size="14" lengthAdjust="spacing" textLength="40.1953" x="453.67" y="55.9951">id: int</text><g data-visibility-modifier="PRIVATE_FIELD"><rect fill="none" height="6" style="stroke:#C82930;stroke-width:1;" width="6" x="441.67" y="65.9453"/></g><text fill="#000000" font-family="sans-serif" font-size="14" lengthAdjust="spacing" textLength="112.2393" x="453.67" y="72.292">fullName: string</text><g data-visibility-modifier="PRIVATE_FIELD"><rect fill="none" height="6" style="stroke:#C82930;stroke-width:1;" width="6" x="441.67" y="82.2422"/></g><text fill="#000000" font-family="sans-serif" font-size="14" lengthAdjust="spacing" textLength="87.9648" x="453.67" y="88.5889">email: string</text><line style="stroke:#181818;stroke-width:0.5;" x1="434.67" x2="584.4171" y1="95.8906" y2="95.8906"/><g data-visibility-modifier="PUBLIC_METHOD"><ellipse cx="444.67" cy="109.5391" fill="#84BE84" rx="3" ry="3" style="stroke:#038048;stroke-width:1;"/></g><text fill="#000000" font-family="sans-serif" font-size="14" lengthAdjust="spacing" textLength="125.0088" x="453.67" y="112.8857">createEmployee()</text><g data-visibility-modifier="PUBLIC_METHOD"><ellipse cx="444.67" cy="125.8359" fill="#84BE84" rx="3" ry="3" style="stroke:#038048;stroke-width:1;"/></g><text fill="#000000" font-family="sans-serif" font-size="14" lengthAdjust="spacing" textLength="125.7471" x="453.67" y="129.1826">startOnboarding()</text><g data-visibility-modifier="PUBLIC_METHOD"><ellipse cx="444.67" cy="142.1328" fill="#84BE84" rx="3" ry="3" style="stroke:#038048;stroke-width:1;"/></g><text fill="#000000" font-family="sans-serif" font-size="14" lengthAdjust="spacing" textLength="84.1094" x="453.67" y="145.4795">verifyData()</text></g><!--class TeamManager--><g class="entity" data-qualified-name="TeamManager" data-source-line="23" id="ent0004"><rect fill="#F1F1F1" height="145.7813" rx="2.5" ry="2.5" style="stroke:#181818;stroke-width:0.5;" width="167.0869" x="7" y="500.05"/><ellipse cx="37.4525" cy="516.05" fill="#ADD1B2" rx="11" ry="11" style="stroke:#181818;stroke-width:1;"/><path d="M40.4212,521.6906 Q39.8431,521.9875 39.2025,522.1281 Q38.5619,522.2844 37.8587,522.2844 Q35.3587,522.2844 34.0306,520.6438 Q32.7181,518.9875 32.7181,515.8625 Q32.7181,512.7375 34.0306,511.0812 Q35.3587,509.425 37.8587,509.425 Q38.5619,509.425 39.2025,509.5812 Q39.8587,509.7375 40.4212,510.0344 L40.4212,512.7531 Q39.7962,512.175 39.2025,511.9094 Q38.6087,511.6281 37.9837,511.6281 Q36.64,511.6281 35.9525,512.7063 Q35.265,513.7688 35.265,515.8625 Q35.265,517.9563 35.9525,519.0344 Q36.64,520.0969 37.9837,520.0969 Q38.6087,520.0969 39.2025,519.8313 Q39.7962,519.55 40.4212,518.9719 L40.4212,521.6906 Z " fill="#000000"/><text fill="#000000" font-family="sans-serif" font-size="14" lengthAdjust="spacing" textLength="100.748" x="54.8864" y="520.8967">TeamManager</text><line style="stroke:#181818;stroke-width:0.5;" x1="8" x2="173.0869" y1="532.05" y2="532.05"/><g data-visibility-modifier="PRIVATE_FIELD"><rect fill="none" height="6" style="stroke:#C82930;stroke-width:1;" width="6" x="15" y="542.6984"/></g><text fill="#000000" font-family="sans-serif" font-size="14" lengthAdjust="spacing" textLength="40.1953" x="27" y="549.0451">id: int</text><g data-visibility-modifier="PRIVATE_FIELD"><rect fill="none" height="6" style="stroke:#C82930;stroke-width:1;" width="6" x="15" y="558.9953"/></g><text fill="#000000" font-family="sans-serif" font-size="14" lengthAdjust="spacing" textLength="112.2393" x="27" y="565.342">fullName: string</text><g data-visibility-modifier="PRIVATE_FIELD"><rect fill="none" height="6" style="stroke:#C82930;stroke-width:1;" width="6" x="15" y="575.2922"/></g><text fill="#000000" font-family="sans-serif" font-size="14" lengthAdjust="spacing" textLength="132.1797" x="27" y="581.6389">department: string</text><line style="stroke:#181818;stroke-width:0.5;" x1="8" x2="173.0869" y1="588.9406" y2="588.9406"/><g data-visibility-modifier="PUBLIC_METHOD"><ellipse cx="18" cy="602.5891" fill="#84BE84" rx="3" ry="3" style="stroke:#038048;stroke-width:1;"/></g><text fill="#000000" font-family="sans-serif" font-size="14" lengthAdjust="spacing" textLength="88.2725" x="27" y="605.9357">assignTask()</text><g data-visibility-modifier="PUBLIC_METHOD"><ellipse cx="18" cy="618.8859" fill="#84BE84" rx="3" ry="3" style="stroke:#038048;stroke-width:1;"/></g><text fill="#000000" font-family="sans-serif" font-size="14" lengthAdjust="spacing" textLength="137.3955" x="27" y="622.2326">updateTaskStatus()</text><g data-visibility-modifier="PUBLIC_METHOD"><ellipse cx="18" cy="635.1828" fill="#84BE84" rx="3" ry="3" style="stroke:#038048;stroke-width:1;"/></g><text fill="#000000" font-family="sans-serif" font-size="14" lengthAdjust="spacing" textLength="141.0869" x="27" y="638.5295">confirmAdaptation()</text></g><!--class ITAdministrator--><g class="entity" data-qualified-name="ITAdministrator" data-source-line="32" id="ent0005"><rect fill="#F1F1F1" height="145.7813" rx="2.5" ry="2.5" style="stroke:#181818;stroke-width:0.5;" width="157.7354" x="200.68" y="245.37"/><ellipse cx="223.4974" cy="261.37" fill="#ADD1B2" rx="11" ry="11" style="stroke:#181818;stroke-width:1;"/><path d="M226.4662,267.0106 Q225.8881,267.3075 225.2474,267.4481 Q224.6068,267.6044 223.9037,267.6044 Q221.4037,267.6044 220.0756,265.9638 Q218.7631,264.3075 218.7631,261.1825 Q218.7631,258.0575 220.0756,256.4013 Q221.4037,254.745 223.9037,254.745 Q224.6068,254.745 225.2474,254.9013 Q225.9037,255.0575 226.4662,255.3544 L226.4662,258.0731 Q225.8412,257.495 225.2474,257.2294 Q224.6537,256.9481 224.0287,256.9481 Q222.6849,256.9481 221.9974,258.0263 Q221.3099,259.0888 221.3099,261.1825 Q221.3099,263.2763 221.9974,264.3544 Q222.6849,265.4169 224.0287,265.4169 Q224.6537,265.4169 225.2474,265.1513 Q225.8412,264.87 226.4662,264.2919 L226.4662,267.0106 Z " fill="#000000"/><text fill="#000000" font-family="sans-serif" font-size="14" lengthAdjust="spacing" textLength="108.3633" x="239.2346" y="266.2167">ITAdministrator</text><line style="stroke:#181818;stroke-width:0.5;" x1="201.68" x2="357.4154" y1="277.37" y2="277.37"/><g data-visibility-modifier="PRIVATE_FIELD"><rect fill="none" height="6" style="stroke:#C82930;stroke-width:1;" width="6" x="208.68" y="288.0184"/></g><text fill="#000000" font-family="sans-serif" font-size="14" lengthAdjust="spacing" textLength="40.1953" x="220.68" y="294.3651">id: int</text><g data-visibility-modifier="PRIVATE_FIELD"><rect fill="none" height="6" style="stroke:#C82930;stroke-width:1;" width="6" x="208.68" y="304.3153"/></g><text fill="#000000" font-family="sans-serif" font-size="14" lengthAdjust="spacing" textLength="112.2393" x="220.68" y="310.662">fullName: string</text><g data-visibility-modifier="PRIVATE_FIELD"><rect fill="none" height="6" style="stroke:#C82930;stroke-width:1;" width="6" x="208.68" y="320.6122"/></g><text fill="#000000" font-family="sans-serif" font-size="14" lengthAdjust="spacing" textLength="87.9648" x="220.68" y="326.9589">email: string</text><line style="stroke:#181818;stroke-width:0.5;" x1="201.68" x2="357.4154" y1="334.2606" y2="334.2606"/><g data-visibility-modifier="PUBLIC_METHOD"><ellipse cx="211.68" cy="347.9091" fill="#84BE84" rx="3" ry="3" style="stroke:#038048;stroke-width:1;"/></g><text fill="#000000" font-family="sans-serif" font-size="14" lengthAdjust="spacing" textLength="112.4443" x="220.68" y="351.2557">createAccount()</text><g data-visibility-modifier="PUBLIC_METHOD"><ellipse cx="211.68" cy="364.2059" fill="#84BE84" rx="3" ry="3" style="stroke:#038048;stroke-width:1;"/></g><text fill="#000000" font-family="sans-serif" font-size="14" lengthAdjust="spacing" textLength="124.3184" x="220.68" y="367.5526">activateAccount()</text><g data-visibility-modifier="PUBLIC_METHOD"><ellipse cx="211.68" cy="380.5028" fill="#84BE84" rx="3" ry="3" style="stroke:#038048;stroke-width:1;"/></g><text fill="#000000" font-family="sans-serif" font-size="14" lengthAdjust="spacing" textLength="131.7354" x="220.68" y="383.8495">assignEquipment()</text></g><!--class OnboardingPlan--><g class="entity" data-qualified-name="OnboardingPlan" data-source-line="41" id="ent0006"><rect fill="#F1F1F1" height="178.375" rx="2.5" ry="2.5" style="stroke:#181818;stroke-width:0.5;" width="251.791" x="384.65" y="483.75"/><ellipse cx="450.2955" cy="499.75" fill="#ADD1B2" rx="11" ry="11" style="stroke:#181818;stroke-width:1;"/><path d="M453.2643,505.3906 Q452.6861,505.6875 452.0455,505.8281 Q451.4049,505.9844 450.7018,505.9844 Q448.2018,505.9844 446.8736,504.3438 Q445.5611,502.6875 445.5611,499.5625 Q445.5611,496.4375 446.8736,494.7813 Q448.2018,493.125 450.7018,493.125 Q451.4049,493.125 452.0455,493.2813 Q452.7018,493.4375 453.2643,493.7344 L453.2643,496.4531 Q452.6393,495.875 452.0455,495.6094 Q451.4518,495.3281 450.8268,495.3281 Q449.483,495.3281 448.7955,496.4063 Q448.108,497.4688 448.108,499.5625 Q448.108,501.6563 448.7955,502.7344 Q449.483,503.7969 450.8268,503.7969 Q451.4518,503.7969 452.0455,503.5313 Q452.6393,503.25 453.2643,502.6719 L453.2643,505.3906 Z " fill="#000000"/><text fill="#000000" font-family="sans-serif" font-size="14" lengthAdjust="spacing" textLength="112" x="470.7955" y="504.5967">OnboardingPlan</text><line style="stroke:#181818;stroke-width:0.5;" x1="385.65" x2="635.441" y1="515.75" y2="515.75"/><g data-visibility-modifier="PRIVATE_FIELD"><rect fill="none" height="6" style="stroke:#C82930;stroke-width:1;" width="6" x="392.65" y="526.3984"/></g><text fill="#000000" font-family="sans-serif" font-size="14" lengthAdjust="spacing" textLength="40.1953" x="404.65" y="532.7451">id: int</text><g data-visibility-modifier="PRIVATE_FIELD"><rect fill="none" height="6" style="stroke:#C82930;stroke-width:1;" width="6" x="392.65" y="542.6953"/></g><text fill="#000000" font-family="sans-serif" font-size="14" lengthAdjust="spacing" textLength="106.8047" x="404.65" y="549.042">startDate: date</text><g data-visibility-modifier="PRIVATE_FIELD"><rect fill="none" height="6" style="stroke:#C82930;stroke-width:1;" width="6" x="392.65" y="558.9922"/></g><text fill="#000000" font-family="sans-serif" font-size="14" lengthAdjust="spacing" textLength="92.374" x="404.65" y="565.3389">status: string</text><g data-visibility-modifier="PRIVATE_FIELD"><rect fill="none" height="6" style="stroke:#C82930;stroke-width:1;" width="6" x="392.65" y="575.2891"/></g><text fill="#000000" font-family="sans-serif" font-size="14" lengthAdjust="spacing" textLength="225.791" x="404.65" y="581.6357">taskList: List&lt;OnboardingTask&gt;</text><line style="stroke:#181818;stroke-width:0.5;" x1="385.65" x2="635.441" y1="588.9375" y2="588.9375"/><g data-visibility-modifier="PUBLIC_METHOD"><ellipse cx="395.65" cy="602.5859" fill="#84BE84" rx="3" ry="3" style="stroke:#038048;stroke-width:1;"/></g><text fill="#000000" font-family="sans-serif" font-size="14" lengthAdjust="spacing" textLength="69.8086" x="404.65" y="605.9326">addTask()</text><g data-visibility-modifier="PUBLIC_METHOD"><ellipse cx="395.65" cy="618.8828" fill="#84BE84" rx="3" ry="3" style="stroke:#038048;stroke-width:1;"/></g><text fill="#000000" font-family="sans-serif" font-size="14" lengthAdjust="spacing" textLength="96.9268" x="404.65" y="622.2295">removeTask()</text><g data-visibility-modifier="PUBLIC_METHOD"><ellipse cx="395.65" cy="635.1797" fill="#84BE84" rx="3" ry="3" style="stroke:#038048;stroke-width:1;"/></g><text fill="#000000" font-family="sans-serif" font-size="14" lengthAdjust="spacing" textLength="90.918" x="404.65" y="638.5264">getTaskList()</text><g data-visibility-modifier="PUBLIC_METHOD"><ellipse cx="395.65" cy="651.4766" fill="#84BE84" rx="3" ry="3" style="stroke:#038048;stroke-width:1;"/></g><text fill="#000000" font-family="sans-serif" font-size="14" lengthAdjust="spacing" textLength="106.1006" x="404.65" y="654.8232">completePlan()</text></g><!--class OnboardingTask--><g class="entity" data-qualified-name="OnboardingTask" data-source-line="52" id="ent0007"><rect fill="#F1F1F1" height="178.375" rx="2.5" ry="2.5" style="stroke:#181818;stroke-width:0.5;" width="166.2324" x="217.43" y="722.12"/><ellipse cx="241.198" cy="738.12" fill="#ADD1B2" rx="11" ry="11" style="stroke:#181818;stroke-width:1;"/><path d="M244.1667,743.7606 Q243.5886,744.0575 242.948,744.1981 Q242.3073,744.3544 241.6042,744.3544 Q239.1042,744.3544 237.7761,742.7138 Q236.4636,741.0575 236.4636,737.9325 Q236.4636,734.8075 237.7761,733.1513 Q239.1042,731.495 241.6042,731.495 Q242.3073,731.495 242.948,731.6513 Q243.6042,731.8075 244.1667,732.1044 L244.1667,734.8231 Q243.5417,734.245 242.948,733.9794 Q242.3542,733.6981 241.7292,733.6981 Q240.3855,733.6981 239.698,734.7763 Q239.0105,735.8388 239.0105,737.9325 Q239.0105,740.0263 239.698,741.1044 Q240.3855,742.1669 241.7292,742.1669 Q242.3542,742.1669 242.948,741.9013 Q243.5417,741.62 244.1667,741.0419 L244.1667,743.7606 Z " fill="#000000"/><text fill="#000000" font-family="sans-serif" font-size="14" lengthAdjust="spacing" textLength="114.748" x="257.1464" y="742.9667">OnboardingTask</text><line style="stroke:#181818;stroke-width:0.5;" x1="218.43" x2="382.6624" y1="754.12" y2="754.12"/><g data-visibility-modifier="PRIVATE_FIELD"><rect fill="none" height="6" style="stroke:#C82930;stroke-width:1;" width="6" x="225.43" y="764.7684"/></g><text fill="#000000" font-family="sans-serif" font-size="14" lengthAdjust="spacing" textLength="40.1953" x="237.43" y="771.1151">id: int</text><g data-visibility-modifier="PRIVATE_FIELD"><rect fill="none" height="6" style="stroke:#C82930;stroke-width:1;" width="6" x="225.43" y="781.0653"/></g><text fill="#000000" font-family="sans-serif" font-size="14" lengthAdjust="spacing" textLength="76.7266" x="237.43" y="787.412">title: string</text><g data-visibility-modifier="PRIVATE_FIELD"><rect fill="none" height="6" style="stroke:#C82930;stroke-width:1;" width="6" x="225.43" y="797.3622"/></g><text fill="#000000" font-family="sans-serif" font-size="14" lengthAdjust="spacing" textLength="127.1963" x="237.43" y="803.7089">description: string</text><g data-visibility-modifier="PRIVATE_FIELD"><rect fill="none" height="6" style="stroke:#C82930;stroke-width:1;" width="6" x="225.43" y="813.6591"/></g><text fill="#000000" font-family="sans-serif" font-size="14" lengthAdjust="spacing" textLength="100.9668" x="237.43" y="820.0057">deadline: date</text><g data-visibility-modifier="PRIVATE_FIELD"><rect fill="none" height="6" style="stroke:#C82930;stroke-width:1;" width="6" x="225.43" y="829.9559"/></g><text fill="#000000" font-family="sans-serif" font-size="14" lengthAdjust="spacing" textLength="92.374" x="237.43" y="836.3026">status: string</text><line style="stroke:#181818;stroke-width:0.5;" x1="218.43" x2="382.6624" y1="843.6044" y2="843.6044"/><g data-visibility-modifier="PUBLIC_METHOD"><ellipse cx="228.43" cy="857.2528" fill="#84BE84" rx="3" ry="3" style="stroke:#038048;stroke-width:1;"/></g><text fill="#000000" font-family="sans-serif" font-size="14" lengthAdjust="spacing" textLength="55.7402" x="237.43" y="860.5995">assign()</text><g data-visibility-modifier="PUBLIC_METHOD"><ellipse cx="228.43" cy="873.5497" fill="#84BE84" rx="3" ry="3" style="stroke:#038048;stroke-width:1;"/></g><text fill="#000000" font-family="sans-serif" font-size="14" lengthAdjust="spacing" textLength="107.0576" x="237.43" y="876.8964">changeStatus()</text><g data-visibility-modifier="PUBLIC_METHOD"><ellipse cx="228.43" cy="889.8466" fill="#84BE84" rx="3" ry="3" style="stroke:#038048;stroke-width:1;"/></g><text fill="#000000" font-family="sans-serif" font-size="14" lengthAdjust="spacing" textLength="140.2324" x="237.43" y="893.1932">markAsCompleted()</text></g><!--class SystemAccount--><g class="entity" data-qualified-name="SystemAccount" data-source-line="63" id="ent0008"><rect fill="#F1F1F1" height="145.7813" rx="2.5" ry="2.5" style="stroke:#181818;stroke-width:0.5;" width="140.9785" x="209.05" y="500.05"/><ellipse cx="224.05" cy="516.05" fill="#ADD1B2" rx="11" ry="11" style="stroke:#181818;stroke-width:1;"/><path d="M227.0188,521.6906 Q226.4406,521.9875 225.8,522.1281 Q225.1594,522.2844 224.4563,522.2844 Q221.9563,522.2844 220.6281,520.6438 Q219.3156,518.9875 219.3156,515.8625 Q219.3156,512.7375 220.6281,511.0812 Q221.9563,509.425 224.4563,509.425 Q225.1594,509.425 225.8,509.5812 Q226.4563,509.7375 227.0188,510.0344 L227.0188,512.7531 Q226.3938,512.175 225.8,511.9094 Q225.2063,511.6281 224.5813,511.6281 Q223.2375,511.6281 222.55,512.7063 Q221.8625,513.7688 221.8625,515.8625 Q221.8625,517.9563 222.55,519.0344 Q223.2375,520.0969 224.5813,520.0969 Q225.2063,520.0969 225.8,519.8313 Q226.3938,519.55 227.0188,518.9719 L227.0188,521.6906 Z " fill="#000000"/><text fill="#000000" font-family="sans-serif" font-size="14" lengthAdjust="spacing" textLength="108.9785" x="238.05" y="520.8967">SystemAccount</text><line style="stroke:#181818;stroke-width:0.5;" x1="210.05" x2="349.0285" y1="532.05" y2="532.05"/><g data-visibility-modifier="PRIVATE_FIELD"><rect fill="none" height="6" style="stroke:#C82930;stroke-width:1;" width="6" x="217.05" y="542.6984"/></g><text fill="#000000" font-family="sans-serif" font-size="14" lengthAdjust="spacing" textLength="83.46" x="229.05" y="549.0451">login: string</text><g data-visibility-modifier="PRIVATE_FIELD"><rect fill="none" height="6" style="stroke:#C82930;stroke-width:1;" width="6" x="217.05" y="558.9953"/></g><text fill="#000000" font-family="sans-serif" font-size="14" lengthAdjust="spacing" textLength="80.6299" x="229.05" y="565.342">type: string</text><g data-visibility-modifier="PRIVATE_FIELD"><rect fill="none" height="6" style="stroke:#C82930;stroke-width:1;" width="6" x="217.05" y="575.2922"/></g><text fill="#000000" font-family="sans-serif" font-size="14" lengthAdjust="spacing" textLength="92.374" x="229.05" y="581.6389">status: string</text><line style="stroke:#181818;stroke-width:0.5;" x1="210.05" x2="349.0285" y1="588.9406" y2="588.9406"/><g data-visibility-modifier="PUBLIC_METHOD"><ellipse cx="220.05" cy="602.5891" fill="#84BE84" rx="3" ry="3" style="stroke:#038048;stroke-width:1;"/></g><text fill="#000000" font-family="sans-serif" font-size="14" lengthAdjust="spacing" textLength="55.6719" x="229.05" y="605.9357">create()</text><g data-visibility-modifier="PUBLIC_METHOD"><ellipse cx="220.05" cy="618.8859" fill="#84BE84" rx="3" ry="3" style="stroke:#038048;stroke-width:1;"/></g><text fill="#000000" font-family="sans-serif" font-size="14" lengthAdjust="spacing" textLength="67.5459" x="229.05" y="622.2326">activate()</text><g data-visibility-modifier="PUBLIC_METHOD"><ellipse cx="220.05" cy="635.1828" fill="#84BE84" rx="3" ry="3" style="stroke:#038048;stroke-width:1;"/></g><text fill="#000000" font-family="sans-serif" font-size="14" lengthAdjust="spacing" textLength="85.0459" x="229.05" y="638.5295">deactivate()</text></g><!--link HRManager to Employee--><g class="link" data-entity-1="ent0003" data-entity-2="ent0002" data-link-type="association" data-source-line="72" id="lnk9"><path codeLine="72" d="M509.54,153.1 C509.54,171.83 509.54,192.39 509.54,212.44" fill="none" id="HRManager-Employee" style="stroke:#181818;stroke-width:1;"/><text fill="#000000" font-family="sans-serif" font-size="13" lengthAdjust="spacing" textLength="8.271" x="501.1713" y="172.8658">1</text><text fill="#000000" font-family="sans-serif" font-size="13" lengthAdjust="spacing" textLength="23.0356" x="485.7322" y="201.5434">0..*</text></g><!--reverse link Employee to OnboardingPlan--><g class="link" data-entity-1="ent0002" data-entity-2="ent0006" data-link-type="composition" data-source-line="73" id="lnk10"><path codeLine="73" d="M510.0088,436.2299 C510.0888,455.8899 510.12,464.26 510.19,483.36" fill="none" id="Employee-backto-OnboardingPlan" style="stroke:#181818;stroke-width:1;"/><polygon fill="#181818" points="509.96,424.23,505.9844,430.2462,510.0088,436.2299,513.9844,430.2137,509.96,424.23" style="stroke:#181818;stroke-width:1;"/><text fill="#000000" font-family="sans-serif" font-size="13" lengthAdjust="spacing" textLength="8.271" x="501.7281" y="443.9248">1</text><text fill="#000000" font-family="sans-serif" font-size="13" lengthAdjust="spacing" textLength="8.271" x="501.8537" y="472.6963">1</text></g><!--reverse link OnboardingPlan to OnboardingTask--><g class="link" data-entity-1="ent0006" data-entity-2="ent0007" data-link-type="composition" data-source-line="74" id="lnk11"><path codeLine="74" d="M424.0811,671.262 C406.8411,690.672 396.54,702.25 379.29,721.67" fill="none" id="OnboardingPlan-backto-OnboardingTask" style="stroke:#181818;stroke-width:1;"/><polygon fill="#181818" points="432.05,662.29,425.0749,664.1197,424.0811,671.262,431.0562,669.4323,432.05,662.29" style="stroke:#181818;stroke-width:1;"/><text fill="#000000" font-family="sans-serif" font-size="13" lengthAdjust="spacing" textLength="8.271" x="417.4869" y="682.0801">1</text><text fill="#000000" font-family="sans-serif" font-size="13" lengthAdjust="spacing" textLength="23.0356" x="361.6499" y="711.0015">0..*</text></g><!--link TeamManager to OnboardingTask--><g class="link" data-entity-1="ent0004" data-entity-2="ent0007" data-link-type="association" data-source-line="75" id="lnk12"><path codeLine="75" d="M154.69,646.14 C175.92,670.04 199.79,696.9 221.97,721.87" fill="none" id="TeamManager-OnboardingTask" style="stroke:#181818;stroke-width:1;"/><text fill="#000000" font-family="sans-serif" font-size="13" lengthAdjust="spacing" textLength="8.271" x="152.4356" y="665.9049">1</text><text fill="#000000" font-family="sans-serif" font-size="13" lengthAdjust="spacing" textLength="23.0356" x="191.512" y="710.9148">0..*</text></g><!--link Employee to SystemAccount--><g class="link" data-entity-1="ent0002" data-entity-2="ent0008" data-link-type="association" data-source-line="76" id="lnk13"><path codeLine="76" d="M414,424.23 C390.92,449.58 366.76,476.12 345.4,499.59" fill="none" id="Employee-SystemAccount" style="stroke:#181818;stroke-width:1;"/><text fill="#000000" font-family="sans-serif" font-size="13" lengthAdjust="spacing" textLength="8.271" x="399.3208" y="443.9248">1</text><text fill="#000000" font-family="sans-serif" font-size="13" lengthAdjust="spacing" textLength="23.0356" x="327.583" y="488.9571">0..*</text></g><!--link ITAdministrator to SystemAccount--><g class="link" data-entity-1="ent0005" data-entity-2="ent0008" data-link-type="association" data-source-line="77" id="lnk14"><path codeLine="77" d="M279.54,391.33 C279.54,425.32 279.54,465.78 279.54,499.77" fill="none" id="ITAdministrator-SystemAccount" style="stroke:#181818;stroke-width:1;"/><text fill="#000000" font-family="sans-serif" font-size="13" lengthAdjust="spacing" textLength="8.271" x="271.1588" y="411.3345">1</text><text fill="#000000" font-family="sans-serif" font-size="13" lengthAdjust="spacing" textLength="23.0356" x="255.4098" y="488.9024">0..*</text></g><?plantuml-src fLJRQjj047tNLon-QbCSsbTJ2YO9DD1BIFm3K-rO7R8NTNVaOaB_lIDvTLbP6Dgyw79sD7Fcd1cL1c9KTxOs_eYeNWgbrehqHf7ZxddV6FCDB6vKv42kwa2qG2P38aFWMs29qtBjiDf7Ol9k7iXDpBFzQgYsw7YZlb3aZwUZJtBsJkt9c7idYU7Dsmuu4FxUGNoEwRtqRa_1tlKv7h54Eg2Mupz5KNRjVNxy2Wug3F_RdvG9A6trEgNQNTFVtGyFGKjWpn03xO-9yi1XXs3_aON6MlAVX9bGaMnKkLQ3LB2fMybRuAaJDrTcgw4MM7oOqhdVRRKb9t87OFzgORPbwHl7gJAKJ8TpjECz63LbCshuOC0ja5aQhuL9Oj6W7Q4qI6FQLfpJG87M4-a2Md_02L0XxrAIGKOn7HbRPikSsmyME3EncHiQoq3rsKve16t8NMokrwzdzHDSXPdV5iBpDjuakja2F1qZeqrs9Ah6LvJJu6EDbtUrjtlcStgLDaP0Qezhj_gmKkkrMhs_lhvQ3N-ROlZjjETNRO3SyraePgCnH9vIvIOKqoNBQyu2iyfZLAPJCT-H2x5_0G00?></g></svg>