<svg xmlns="http://www.w3.org/2000/svg" xmlns:xlink="http://www.w3.org/1999/xlink" contentStyleType="text/css" data-diagram-type="DESCRIPTION" height="706px" preserveAspectRatio="none" style="width:1617px;height:706px;background:#FFFFFF;" version="1.1" viewBox="0 0 1617 706" width="1617px" zoomAndPan="magnify"><?plantuml 1.2026.3beta4?><defs/><g><!--cluster ??????? SAP SuccessFactors (Onboarding)--><g class="cluster" data-qualified-name="....... SAP SuccessFactors .Onboarding." data-source-line="8" id="ent0006"><rect fill="none" height="551" rx="2.5" ry="2.5" style="stroke:#181818;stroke-width:1;" width="1415.23" x="187.83" y="7"/><text fill="#000000" font-family="sans-serif" font-size="14" font-weight="700" lengthAdjust="spacing" textLength="339.8145" x="725.5378" y="21.9951">&#1057;&#1080;&#1089;&#1090;&#1077;&#1084;&#1072; SAP SuccessFactors (Onboarding)</text></g><!--entity U0--><g class="entity" data-qualified-name="....... SAP SuccessFactors .Onboarding..U0" data-source-line="10" id="ent0007"><ellipse cx="734.0849" cy="310.003" fill="#F1F1F1" rx="114.9649" ry="25.393" style="stroke:#181818;stroke-width:0.5;"/><text fill="#000000" font-family="sans-serif" font-size="14" lengthAdjust="spacing" textLength="208.5781" x="629.7958" y="314.6514">&#1047;&#1072;&#1087;&#1091;&#1089;&#1090;&#1080;&#1090;&#1080; &#1087;&#1088;&#1086;&#1094;&#1077;&#1089; &#1072;&#1076;&#1072;&#1087;&#1090;&#1072;&#1094;&#1110;&#1111;</text></g><!--entity U1--><g class="entity" data-qualified-name="....... SAP SuccessFactors .Onboarding..U1" data-source-line="12" id="ent0008"><ellipse cx="1111.8806" cy="339.0001" fill="#F1F1F1" rx="121.3006" ry="26.6601" style="stroke:#181818;stroke-width:0.5;"/><text fill="#000000" font-family="sans-serif" font-size="14" lengthAdjust="spacing" textLength="222.127" x="1000.8171" y="343.6485">&#1057;&#1090;&#1074;&#1086;&#1088;&#1080;&#1090;&#1080; &#1087;&#1088;&#1086;&#1092;&#1110;&#1083;&#1100; &#1087;&#1088;&#1072;&#1094;&#1110;&#1074;&#1085;&#1080;&#1082;&#1072;</text></g><!--entity U2--><g class="entity" data-qualified-name="....... SAP SuccessFactors .Onboarding..U2" data-source-line="13" id="ent0009"><ellipse cx="1111.8754" cy="246.9971" fill="#F1F1F1" rx="137.8354" ry="29.9671" style="stroke:#181818;stroke-width:0.5;"/><text fill="#000000" font-family="sans-serif" font-size="14" lengthAdjust="spacing" textLength="257.0654" x="983.3427" y="251.6455">&#1055;&#1077;&#1088;&#1077;&#1074;&#1110;&#1088;&#1080;&#1090;&#1080; &#1076;&#1086;&#1082;&#1091;&#1084;&#1077;&#1085;&#1090;&#1080; &#1087;&#1088;&#1072;&#1094;&#1110;&#1074;&#1085;&#1080;&#1082;&#1072;</text></g><!--entity U3--><g class="entity" data-qualified-name="....... SAP SuccessFactors .Onboarding..U3" data-source-line="14" id="ent0010"><ellipse cx="1111.8847" cy="155.9969" fill="#F1F1F1" rx="115.6847" ry="25.5369" style="stroke:#181818;stroke-width:0.5;"/><text fill="#000000" font-family="sans-serif" font-size="14" lengthAdjust="spacing" textLength="210.123" x="1006.8232" y="160.6454">&#1047;&#1072;&#1087;&#1086;&#1074;&#1085;&#1080;&#1090;&#1080; &#1087;&#1077;&#1088;&#1089;&#1086;&#1085;&#1072;&#1083;&#1100;&#1085;&#1110; &#1076;&#1072;&#1085;&#1110;</text></g><!--entity U4--><g class="entity" data-qualified-name="....... SAP SuccessFactors .Onboarding..U4" data-source-line="15" id="ent0011"><ellipse cx="1111.8801" cy="69" fill="#F1F1F1" rx="120.8001" ry="26.56" style="stroke:#181818;stroke-width:0.5;"/><text fill="#000000" font-family="sans-serif" font-size="14" lengthAdjust="spacing" textLength="221.0605" x="1001.3498" y="73.6485">&#1055;&#1110;&#1076;&#1087;&#1080;&#1089;&#1072;&#1090;&#1080; &#1090;&#1088;&#1091;&#1076;&#1086;&#1074;&#1110; &#1076;&#1086;&#1082;&#1091;&#1084;&#1077;&#1085;&#1090;&#1080;</text></g><!--entity U5--><g class="entity" data-qualified-name="....... SAP SuccessFactors .Onboarding..U5" data-source-line="16" id="ent0012"><ellipse cx="1111.8836" cy="426.0027" fill="#F1F1F1" rx="112.8636" ry="24.9727" style="stroke:#181818;stroke-width:0.5;"/><text fill="#000000" font-family="sans-serif" font-size="14" lengthAdjust="spacing" textLength="204.0596" x="1009.8538" y="430.6512">&#1057;&#1090;&#1074;&#1086;&#1088;&#1080;&#1090;&#1080; &#1089;&#1080;&#1089;&#1090;&#1077;&#1084;&#1085;&#1110; &#1072;&#1082;&#1072;&#1091;&#1085;&#1090;&#1080;</text></g><!--entity U6--><g class="entity" data-qualified-name="....... SAP SuccessFactors .Onboarding..U6" data-source-line="17" id="ent0013"><ellipse cx="1480.8923" cy="493.0045" fill="#F1F1F1" rx="106.1723" ry="23.6345" style="stroke:#181818;stroke-width:0.5;"/><text fill="#000000" font-family="sans-serif" font-size="14" lengthAdjust="spacing" textLength="189.5742" x="1386.1052" y="497.6529">&#1053;&#1072;&#1076;&#1072;&#1090;&#1080; &#1076;&#1086;&#1089;&#1090;&#1091;&#1087; &#1076;&#1086; &#1089;&#1080;&#1089;&#1090;&#1077;&#1084;</text></g><!--entity U7--><g class="entity" data-qualified-name="....... SAP SuccessFactors .Onboarding..U7" data-source-line="18" id="ent0014"><ellipse cx="1111.8847" cy="514.0009" fill="#F1F1F1" rx="129.6547" ry="28.3309" style="stroke:#181818;stroke-width:0.5;"/><text fill="#000000" font-family="sans-serif" font-size="14" lengthAdjust="spacing" textLength="239.8457" x="991.9619" y="518.6494">&#1055;&#1110;&#1076;&#1075;&#1086;&#1090;&#1091;&#1074;&#1072;&#1090;&#1080; &#1088;&#1086;&#1073;&#1086;&#1095;&#1077; &#1086;&#1073;&#1083;&#1072;&#1076;&#1085;&#1072;&#1085;&#1085;&#1103;</text></g><!--entity U8--><g class="entity" data-qualified-name="....... SAP SuccessFactors .Onboarding..U8" data-source-line="20" id="ent0015"><ellipse cx="349.9718" cy="194.9984" fill="#F1F1F1" rx="146.1418" ry="31.6284" style="stroke:#181818;stroke-width:0.5;"/><text fill="#000000" font-family="sans-serif" font-size="14" lengthAdjust="spacing" textLength="274.4424" x="212.7506" y="199.6468">&#1054;&#1079;&#1085;&#1072;&#1081;&#1086;&#1084;&#1080;&#1090;&#1080;&#1089;&#1103; &#1079; &#1087;&#1086;&#1083;&#1110;&#1090;&#1080;&#1082;&#1072;&#1084;&#1080; &#1082;&#1086;&#1084;&#1087;&#1072;&#1085;&#1110;&#1111;</text></g><!--entity U9--><g class="entity" data-qualified-name="....... SAP SuccessFactors .Onboarding..U9" data-source-line="21" id="ent0016"><ellipse cx="349.9677" cy="287.9955" fill="#F1F1F1" rx="120.7777" ry="26.5555" style="stroke:#181818;stroke-width:0.5;"/><text fill="#000000" font-family="sans-serif" font-size="14" lengthAdjust="spacing" textLength="221.0127" x="239.4613" y="292.644">&#1055;&#1088;&#1086;&#1081;&#1090;&#1080; &#1086;&#1073;&#1086;&#1074;&#8217;&#1103;&#1079;&#1082;&#1086;&#1074;&#1077; &#1085;&#1072;&#1074;&#1095;&#1072;&#1085;&#1085;&#1103;</text></g><!--entity U10--><g class="entity" data-qualified-name="....... SAP SuccessFactors .Onboarding..U10" data-source-line="22" id="ent0017"><ellipse cx="349.9658" cy="380.0012" fill="#F1F1F1" rx="139.7558" ry="30.3512" style="stroke:#181818;stroke-width:0.5;"/><text fill="#000000" font-family="sans-serif" font-size="14" lengthAdjust="spacing" textLength="261.0918" x="219.4199" y="384.6496">&#1055;&#1088;&#1080;&#1079;&#1085;&#1072;&#1095;&#1080;&#1090;&#1080; &#1087;&#1077;&#1088;&#1096;&#1110; &#1088;&#1086;&#1073;&#1086;&#1095;&#1110; &#1079;&#1072;&#1074;&#1076;&#1072;&#1085;&#1085;&#1103;</text></g><!--entity Employee--><g class="entity" data-qualified-name="Employee" data-source-line="3" id="ent0002"><ellipse cx="73.4141" cy="102.35" fill="#F1F1F1" rx="8" ry="8" style="stroke:#181818;stroke-width:0.5;"/><path d="M73.4141,110.35 L73.4141,137.35 M60.4141,118.35 L86.4141,118.35 M73.4141,137.35 L60.4141,152.35 M73.4141,137.35 L86.4141,152.35" fill="none" style="stroke:#181818;stroke-width:0.5;"/><text fill="#000000" font-family="sans-serif" font-size="14" lengthAdjust="spacing" textLength="124.9883" x="10.92" y="166.8451">&#1053;&#1086;&#1074;&#1080;&#1081; &#1087;&#1088;&#1072;&#1094;&#1110;&#1074;&#1085;&#1080;&#1082;</text></g><!--entity HR--><g class="entity" data-qualified-name="HR" data-source-line="4" id="ent0003"><ellipse cx="349.9692" cy="582.35" fill="#F1F1F1" rx="8" ry="8" style="stroke:#181818;stroke-width:0.5;"/><path d="M349.9692,590.35 L349.9692,617.35 M336.9692,598.35 L362.9692,598.35 M349.9692,617.35 L336.9692,632.35 M349.9692,617.35 L362.9692,632.35" fill="none" style="stroke:#181818;stroke-width:0.5;"/><text fill="#000000" font-family="sans-serif" font-size="14" lengthAdjust="spacing" textLength="101.4385" x="299.25" y="646.8451">HR &#1084;&#1077;&#1085;&#1077;&#1076;&#1078;&#1077;&#1088;</text></g><!--entity Manager--><g class="entity" data-qualified-name="Manager" data-source-line="5" id="ent0004"><ellipse cx="73.416" cy="350.35" fill="#F1F1F1" rx="8" ry="8" style="stroke:#181818;stroke-width:0.5;"/><path d="M73.416,358.35 L73.416,385.35 M60.416,366.35 L86.416,366.35 M73.416,385.35 L60.416,400.35 M73.416,385.35 L86.416,400.35" fill="none" style="stroke:#181818;stroke-width:0.5;"/><text fill="#000000" font-family="sans-serif" font-size="14" lengthAdjust="spacing" textLength="134.832" x="6" y="414.8451">&#1050;&#1077;&#1088;&#1110;&#1074;&#1085;&#1080;&#1082; &#1082;&#1086;&#1084;&#1072;&#1085;&#1076;&#1080;</text></g><!--entity IT--><g class="entity" data-qualified-name="IT" data-source-line="6" id="ent0005"><ellipse cx="734.0848" cy="625.35" fill="#F1F1F1" rx="8" ry="8" style="stroke:#181818;stroke-width:0.5;"/><path d="M734.0848,633.35 L734.0848,660.35 M721.0848,641.35 L747.0848,641.35 M734.0848,660.35 L721.0848,675.35 M734.0848,660.35 L747.0848,675.35" fill="none" style="stroke:#181818;stroke-width:0.5;"/><text fill="#000000" font-family="sans-serif" font-size="14" lengthAdjust="spacing" textLength="121.8096" x="673.18" y="689.8451">IT &#1072;&#1076;&#1084;&#1110;&#1085;&#1110;&#1089;&#1090;&#1088;&#1072;&#1090;&#1086;&#1088;</text></g><!--link Employee to U3--><g class="link" data-entity-1="ent0002" data-entity-2="ent0010" data-link-type="association" data-source-line="25" id="lnk18"><path d="M136.21,128.98 C278.79,122.66 641.73,110.37 944.05,132 C968.56,133.76 994.95,136.94 1019.35,140.43" fill="none" id="Employee-U3" style="stroke:#181818;stroke-width:1;"/></g><!--link Employee to U4--><g class="link" data-entity-1="ent0002" data-entity-2="ent0011" data-link-type="association" data-source-line="26" id="lnk19"><path d="M136.4,108.83 C150.49,104.45 165.53,100.48 179.83,98 C469.44,47.82 817.12,54.28 994.43,62.24" fill="none" id="Employee-U4" style="stroke:#181818;stroke-width:1;"/></g><!--link Employee to U8--><g class="link" data-entity-1="ent0002" data-entity-2="ent0015" data-link-type="association" data-source-line="27" id="lnk20"><path d="M136.37,146.22 C169.35,153.79 210.73,163.28 248.19,171.88" fill="none" id="Employee-U8" style="stroke:#181818;stroke-width:1;"/></g><!--link Employee to U9--><g class="link" data-entity-1="ent0002" data-entity-2="ent0016" data-link-type="association" data-source-line="28" id="lnk21"><path d="M101.6,170.55 C120.79,195.03 148.59,225.48 179.83,244 C201.5,256.84 226.89,265.98 251.32,272.47" fill="none" id="Employee-U9" style="stroke:#181818;stroke-width:1;"/></g><!--link HR to U0--><g class="link" data-entity-1="ent0003" data-entity-2="ent0007" data-link-type="association" data-source-line="30" id="lnk22"><path d="M401.07,604.66 C432.24,597.63 471.03,584.05 496.12,558 C525.65,527.33 501.37,501.66 526.12,467 C568.71,407.36 640.62,360.18 687.47,333.67" fill="none" id="HR-U0" style="stroke:#181818;stroke-width:1;"/></g><!--link HR to U1--><g class="link" data-entity-1="ent0003" data-entity-2="ent0008" data-link-type="association" data-source-line="31" id="lnk23"><path d="M401.05,607.38 C536.83,594.4 904.49,556.14 944.05,519 C988.86,476.93 932.79,429.56 974.05,384 C985.46,371.4 1000.47,362.31 1016.35,355.77" fill="none" id="HR-U1" style="stroke:#181818;stroke-width:1;"/></g><!--link HR to U2--><g class="link" data-entity-1="ent0003" data-entity-2="ent0009" data-link-type="association" data-source-line="32" id="lnk24"><path d="M401.13,598.35 C436.12,588.87 483.93,576.01 526.12,565 C529.01,564.25 942,461.19 944.05,459 C994.64,404.87 925.9,351.33 974.05,295 C984.02,283.33 997.01,274.49 1011.02,267.8" fill="none" id="HR-U2" style="stroke:#181818;stroke-width:1;"/></g><!--link Manager to U10--><g class="link" data-entity-1="ent0004" data-entity-2="ent0017" data-link-type="association" data-source-line="34" id="lnk25"><path d="M141.23,380 C162.1,380 185.96,380 209.89,380" fill="none" id="Manager-U10" style="stroke:#181818;stroke-width:1;"/></g><!--link IT to U5--><g class="link" data-entity-1="ent0005" data-entity-2="ent0012" data-link-type="association" data-source-line="36" id="lnk26"><path d="M795.15,649.54 C842.07,642.1 905.59,624.53 944.05,583 C979.94,544.25 937.5,506.14 974.05,468 C986.17,455.35 1001.99,446.48 1018.56,440.28" fill="none" id="IT-U5" style="stroke:#181818;stroke-width:1;"/></g><!--link IT to U6--><g class="link" data-entity-1="ent0005" data-entity-2="ent0013" data-link-type="association" data-source-line="37" id="lnk27"><path d="M795.35,657.31 C837.3,657.93 894.39,656.81 944.05,649 C1124.94,620.55 1330.8,549.08 1426.16,513.62" fill="none" id="IT-U6" style="stroke:#181818;stroke-width:1;"/></g><!--link IT to U7--><g class="link" data-entity-1="ent0005" data-entity-2="ent0014" data-link-type="association" data-source-line="38" id="lnk28"><path d="M795.37,652.97 C838.08,649.89 896.08,642.33 944.05,624 C995.09,604.49 1046.47,567.35 1078.46,541.66" fill="none" id="IT-U7" style="stroke:#181818;stroke-width:1;"/></g><!--link U0 to U1--><g class="link" data-entity-1="ent0007" data-entity-2="ent0008" data-link-type="dependency" data-source-line="40" id="lnk29"><path d="M839.23,320.53 C852.62,321.77 866.16,322.96 879.05,324 C916.43,327.03 951.2621,329.4596 988.0921,331.7996" fill="none" id="U0-to-U1" style="stroke:#181818;stroke-width:1;stroke-dasharray:7,7;"/><polygon fill="#181818" points="994.08,332.18,985.3517,327.6174,989.0901,331.863,984.8445,335.6013,994.08,332.18" style="stroke:#181818;stroke-width:1;"/><text fill="#000000" font-family="sans-serif" font-size="13" lengthAdjust="spacing" textLength="63.0068" x="880.05" y="320.0669">&#171;include&#187;</text></g><!--link U0 to U2--><g class="link" data-entity-1="ent0007" data-entity-2="ent0009" data-link-type="dependency" data-source-line="41" id="lnk30"><path d="M826.53,294.67 C879.33,285.82 940.1425,275.6217 995.6925,266.3117" fill="none" id="U0-to-U2" style="stroke:#181818;stroke-width:1;stroke-dasharray:7,7;"/><polygon fill="#181818" points="1001.61,265.32,992.0726,262.8626,996.6788,266.1465,993.395,270.7526,1001.61,265.32" style="stroke:#181818;stroke-width:1;"/><text fill="#000000" font-family="sans-serif" font-size="13" lengthAdjust="spacing" textLength="63.0068" x="880.05" y="273.0669">&#171;include&#187;</text></g><!--link U0 to U3--><g class="link" data-entity-1="ent0007" data-entity-2="ent0010" data-link-type="dependency" data-source-line="42" id="lnk31"><path d="M781.52,286.6 C829.15,263.08 905.74,226.59 974.05,200 C995.67,191.58 1013.9214,185.286 1035.6814,178.376" fill="none" id="U0-to-U3" style="stroke:#181818;stroke-width:1;stroke-dasharray:7,7;"/><polygon fill="#181818" points="1041.4,176.56,1031.6115,175.4716,1036.6345,178.0733,1034.0328,183.0963,1041.4,176.56" style="stroke:#181818;stroke-width:1;"/><text fill="#000000" font-family="sans-serif" font-size="13" lengthAdjust="spacing" textLength="63.0068" x="880.05" y="210.0669">&#171;include&#187;</text></g><!--link U0 to U4--><g class="link" data-entity-1="ent0007" data-entity-2="ent0011" data-link-type="dependency" data-source-line="43" id="lnk32"><path d="M758.82,284.82 C799.25,243.32 885.71,160.45 974.05,113 C991.85,103.44 1006.3891,97.3908 1025.7391,91.0408" fill="none" id="U0-to-U4" style="stroke:#181818;stroke-width:1;stroke-dasharray:7,7;"/><polygon fill="#181818" points="1031.44,89.17,1021.6415,88.1757,1026.6893,90.729,1024.1359,95.7768,1031.44,89.17" style="stroke:#181818;stroke-width:1;"/><text fill="#000000" font-family="sans-serif" font-size="13" lengthAdjust="spacing" textLength="63.0068" x="880.05" y="131.0669">&#171;include&#187;</text></g><!--link U0 to U5--><g class="link" data-entity-1="ent0007" data-entity-2="ent0012" data-link-type="dependency" data-source-line="44" id="lnk33"><path d="M802.27,330.74 C870.77,351.89 970.677,382.72 1038.857,403.77" fill="none" id="U0-to-U5" style="stroke:#181818;stroke-width:1;stroke-dasharray:7,7;"/><polygon fill="#181818" points="1044.59,405.54,1037.1705,399.063,1039.8125,404.065,1034.8105,406.707,1044.59,405.54" style="stroke:#181818;stroke-width:1;"/><text fill="#000000" font-family="sans-serif" font-size="13" lengthAdjust="spacing" textLength="63.0068" x="880.05" y="354.0669">&#171;include&#187;</text></g><!--link U0 to U7--><g class="link" data-entity-1="ent0007" data-entity-2="ent0014" data-link-type="dependency" data-source-line="45" id="lnk34"><path d="M766.71,334.82 C810.99,368.63 894.94,429.37 974.05,468 C992.29,476.91 1007.0006,482.8549 1026.3706,489.4549" fill="none" id="U0-to-U7" style="stroke:#181818;stroke-width:1;stroke-dasharray:7,7;"/><polygon fill="#181818" points="1032.05,491.39,1024.821,484.701,1027.3172,489.7774,1022.2409,492.2735,1032.05,491.39" style="stroke:#181818;stroke-width:1;"/><text fill="#000000" font-family="sans-serif" font-size="13" lengthAdjust="spacing" textLength="63.0068" x="880.05" y="414.0669">&#171;include&#187;</text></g><!--link U5 to U6--><g class="link" data-entity-1="ent0012" data-entity-2="ent0013" data-link-type="dependency" data-source-line="47" id="lnk35"><path d="M1199.86,441.88 C1259.74,452.81 1332.8875,466.1626 1391.7275,476.9026" fill="none" id="U5-to-U6" style="stroke:#181818;stroke-width:1;stroke-dasharray:7,7;"/><polygon fill="#181818" points="1397.63,477.98,1389.4945,472.429,1392.7113,477.0822,1388.058,480.2989,1397.63,477.98" style="stroke:#181818;stroke-width:1;"/><text fill="#000000" font-family="sans-serif" font-size="13" lengthAdjust="spacing" textLength="63.0068" x="1280.72" y="454.0669">&#171;include&#187;</text></g><!--link U8 to U0--><g class="link" data-entity-1="ent0015" data-entity-2="ent0007" data-link-type="dependency" data-source-line="49" id="lnk36"><path d="M436.73,220.81 C505.49,241.5 594.9648,268.4302 658.7348,287.6302" fill="none" id="U8-to-U0" style="stroke:#181818;stroke-width:1;stroke-dasharray:7,7;"/><polygon fill="#181818" points="664.48,289.36,657.0153,282.9352,659.6923,287.9185,654.7089,290.5955,664.48,289.36" style="stroke:#181818;stroke-width:1;"/><text fill="#000000" font-family="sans-serif" font-size="13" lengthAdjust="spacing" textLength="61.1851" x="527.12" y="246.0669">&#171;extend&#187;</text></g><!--link U9 to U0--><g class="link" data-entity-1="ent0016" data-entity-2="ent0007" data-link-type="dependency" data-source-line="50" id="lnk37"><path d="M467.43,294.71 C516.72,297.54 567.8599,300.4851 616.4899,303.2851" fill="none" id="U9-to-U0" style="stroke:#181818;stroke-width:1;stroke-dasharray:7,7;"/><polygon fill="#181818" points="622.48,303.63,613.7248,299.1193,617.4883,303.3426,613.265,307.106,622.48,303.63" style="stroke:#181818;stroke-width:1;"/><text fill="#000000" font-family="sans-serif" font-size="13" lengthAdjust="spacing" textLength="61.1851" x="527.12" y="295.0669">&#171;extend&#187;</text></g><!--link U10 to U0--><g class="link" data-entity-1="ent0017" data-entity-2="ent0007" data-link-type="dependency" data-source-line="51" id="lnk38"><path d="M457.92,360.41 C516.76,349.63 582.9883,337.5017 638.6383,327.3017" fill="none" id="U10-to-U0" style="stroke:#181818;stroke-width:1;stroke-dasharray:7,7;"/><polygon fill="#181818" points="644.54,326.22,634.9663,323.9081,639.6219,327.1214,636.4086,331.777,644.54,326.22" style="stroke:#181818;stroke-width:1;"/><text fill="#000000" font-family="sans-serif" font-size="13" lengthAdjust="spacing" textLength="61.1851" x="527.12" y="333.0669">&#171;extend&#187;</text></g><?plantuml-src VLHBRXD14DttAKfUmIBHsB4T6qMMM82I1GBbSu1XF1XBPemyOmc4aFn1WGMITuc2551kO0ORZpzZNw7w2fo4wkgCJVl3OgJgLrMlNbLrJyrz5K1GXqQryZg0ShNXEa6rxWbXEq6z0IcynJc66E4OS25Rs9UNyeg0cA192cmVdhnvMwk_Tzqau_WKS8P3YXZY07_ZKBOuxlXqoVbDWIiQm0aLcM6VZWECEFgPxTaLjv6ad9m3kGSuewnONicsxB2O3ixlwK_EXL3YRQzISwd67KOgYaGGCPmzVW5dJSTnVVyfK_hmuBdticutobMlyZ057uG0QFgkO_ig-vggBMIN6IBrwUxdyfAajxKM5T7H0v7NhE72Cbdko1ygXIR79sfYAhzk6IZsDK_QeFcXnaMDX5HeIJMWaKraLuzwnRwLBhFP6syrNkhYXRG9ZCb9sjIGWNiaGvCSc9geoe3oQCYyXWZKHaYFqXNgv3M1cYRxtmaHssfjhA6lsY2QVoXo1iMjNiPoAdmtkhZWWq6ei_DR-lX5QIefJ7gXDU5F0Z_Z4DYSSfMOxsWiUvhgq5ptTnnnn9XlCpT4fNk08-21Jsb_7RqNvK-k_K9FERb3XJLzIifOTyUQCFpJkf4zgZNX9P90LJGahOQuuWPFfFLHeB7sBpJcLSDgvYF5fxU_uajRugCGoMk7lJrr9OnZrZmMp6DH2FerACjAZ7HYP8IuV_0QftT4BrwPkSJ89mOD_SA2_VqInS4ZE3ggUawjMNPBfIMUsO4VxC2pE_3S3lnm3HSKoOxyXgEW7HOxt7U1wvKLKN4xdBQsuNy1?></g></svg>