<svg xmlns="http://www.w3.org/2000/svg" xmlns:xlink="http://www.w3.org/1999/xlink" contentStyleType="text/css" data-diagram-type="ACTIVITY" height="965px" preserveAspectRatio="none" style="width:1003px;height:965px;background:#FFFFFF;" version="1.1" viewBox="0 0 1003 965" width="1003px" zoomAndPan="magnify"><?plantuml 1.2026.3beta4?><defs/><g><rect fill="none" height="20.9531" style="stroke:none;stroke-width:1;" width="956.6675" x="20" y="17.7451"/><ellipse cx="144.7764" cy="53.6982" fill="#222222" rx="10" ry="10" style="stroke:#222222;stroke-width:1;"/><rect fill="#F1F1F1" height="33.9688" rx="12.5" ry="12.5" style="stroke:#181818;stroke-width:0.5;" width="179.082" x="55.2354" y="83.6982"/><text fill="#000000" font-family="sans-serif" font-size="12" lengthAdjust="spacing" textLength="159.082" x="65.2354" y="104.8369">&#1055;&#1088;&#1080;&#1073;&#1091;&#1090;&#1080; &#1085;&#1072; &#1088;&#1086;&#1073;&#1086;&#1095;&#1077; &#1084;&#1110;&#1089;&#1094;&#1077;</text><rect fill="#F1F1F1" height="33.9688" rx="12.5" ry="12.5" style="stroke:#181818;stroke-width:0.5;" width="237.5527" x="26" y="137.667"/><text fill="#000000" font-family="sans-serif" font-size="12" lengthAdjust="spacing" textLength="217.5527" x="36" y="158.8057">&#1053;&#1072;&#1076;&#1072;&#1090;&#1080; &#1076;&#1086;&#1082;&#1091;&#1084;&#1077;&#1085;&#1090;&#1080; HR &#1084;&#1077;&#1085;&#1077;&#1076;&#1078;&#1077;&#1088;&#1091;</text><rect fill="#F1F1F1" height="33.9688" rx="12.5" ry="12.5" style="stroke:#181818;stroke-width:0.5;" width="202.9004" x="43.3262" y="306.4126"/><text fill="#000000" font-family="sans-serif" font-size="12" lengthAdjust="spacing" textLength="182.9004" x="53.3262" y="327.5513">&#1053;&#1072;&#1076;&#1072;&#1090;&#1080; &#1076;&#1086;&#1082;&#1091;&#1084;&#1077;&#1085;&#1090;&#1080; &#1087;&#1086;&#1074;&#1090;&#1086;&#1088;&#1085;&#1086;</text><rect fill="#F1F1F1" height="33.9688" rx="12.5" ry="12.5" style="stroke:#181818;stroke-width:0.5;" width="127.9941" x="80.7793" y="814.1313"/><text fill="#000000" font-family="sans-serif" font-size="12" lengthAdjust="spacing" textLength="107.9941" x="90.7793" y="835.27">&#1059;&#1074;&#1110;&#1081;&#1090;&#1080; &#1076;&#1086; &#1089;&#1080;&#1089;&#1090;&#1077;&#1084;</text><rect fill="#F1F1F1" height="33.9688" rx="12.5" ry="12.5" style="stroke:#181818;stroke-width:0.5;" width="113.2051" x="88.1738" y="868.1001"/><text fill="#000000" font-family="sans-serif" font-size="12" lengthAdjust="spacing" textLength="93.2051" x="98.1738" y="889.2388">&#1055;&#1086;&#1095;&#1072;&#1090;&#1080; &#1088;&#1086;&#1073;&#1086;&#1090;&#1091;</text><ellipse cx="144.7764" cy="933.0688" fill="none" rx="11" ry="11" style="stroke:#222222;stroke-width:1;"/><ellipse cx="144.7764" cy="933.0688" fill="#222222" rx="6" ry="6" style="stroke:#222222;stroke-width:1;"/><line style="stroke:#000000;stroke-width:1.5;" x1="20" x2="20" y1="17.7451" y2="944.0688"/><rect fill="#F1F1F1" height="33.9688" rx="12.5" ry="12.5" style="stroke:#181818;stroke-width:0.5;" width="232.9941" x="298.5527" y="247.3462"/><text fill="#000000" font-family="sans-serif" font-size="12" lengthAdjust="spacing" textLength="212.9941" x="308.5527" y="268.4849">&#1047;&#1072;&#1087;&#1088;&#1086;&#1089;&#1080;&#1090;&#1080; &#1091;&#1090;&#1086;&#1095;&#1085;&#1077;&#1085;&#1085;&#1103; &#1076;&#1086;&#1082;&#1091;&#1084;&#1077;&#1085;&#1090;&#1110;&#1074;</text><polygon fill="#F1F1F1" points="353.0244,191.6357,477.0752,191.6357,489.0752,203.6357,477.0752,215.6357,353.0244,215.6357,341.0244,203.6357,353.0244,191.6357" style="stroke:#181818;stroke-width:0.5;"/><text fill="#000000" font-family="sans-serif" font-size="11" lengthAdjust="spacing" textLength="11.3276" x="419.0498" y="225.8462">&#1053;&#1110;</text><text fill="#000000" font-family="sans-serif" font-size="11" lengthAdjust="spacing" textLength="124.0508" x="353.0244" y="207.4438">&#1044;&#1086;&#1082;&#1091;&#1084;&#1077;&#1085;&#1090;&#1080; &#1082;&#1086;&#1088;&#1077;&#1082;&#1090;&#1085;&#1110;?</text><text fill="#000000" font-family="sans-serif" font-size="11" lengthAdjust="spacing" textLength="20.104" x="320.9204" y="201.0415">&#1058;&#1072;&#1082;</text><rect fill="#F1F1F1" height="33.9688" rx="12.5" ry="12.5" style="stroke:#181818;stroke-width:0.5;" width="161.7559" x="334.1719" y="382.3813"/><text fill="#000000" font-family="sans-serif" font-size="12" lengthAdjust="spacing" textLength="141.7559" x="344.1719" y="403.52">&#1054;&#1092;&#1086;&#1088;&#1084;&#1080;&#1090;&#1080; &#1087;&#1088;&#1072;&#1094;&#1110;&#1074;&#1085;&#1080;&#1082;&#1072;</text><rect fill="#F1F1F1" height="33.9688" rx="12.5" ry="12.5" style="stroke:#181818;stroke-width:0.5;" width="183.1191" x="323.4902" y="436.3501"/><text fill="#000000" font-family="sans-serif" font-size="12" lengthAdjust="spacing" textLength="163.1191" x="333.4902" y="457.4888">&#1055;&#1088;&#1086;&#1074;&#1077;&#1089;&#1090;&#1080; &#1074;&#1089;&#1090;&#1091;&#1087;&#1085;&#1091; &#1079;&#1091;&#1089;&#1090;&#1088;&#1110;&#1095;</text><rect fill="#F1F1F1" height="33.9688" rx="12.5" ry="12.5" style="stroke:#181818;stroke-width:0.5;" width="155.5273" x="337.2861" y="490.3188"/><text fill="#000000" font-family="sans-serif" font-size="12" lengthAdjust="spacing" textLength="135.5273" x="347.2861" y="511.4575">&#1055;&#1088;&#1086;&#1074;&#1077;&#1089;&#1090;&#1080; &#1110;&#1085;&#1089;&#1090;&#1088;&#1091;&#1082;&#1090;&#1072;&#1078;</text><line style="stroke:#000000;stroke-width:1.5;" x1="267.5527" x2="267.5527" y1="17.7451" y2="944.0688"/><rect fill="#F1F1F1" height="33.9688" rx="12.5" ry="12.5" style="stroke:#181818;stroke-width:0.5;" width="186.5996" x="541.5469" y="544.2876"/><text fill="#000000" font-family="sans-serif" font-size="12" lengthAdjust="spacing" textLength="166.5996" x="551.5469" y="565.4263">&#1057;&#1090;&#1074;&#1086;&#1088;&#1080;&#1090;&#1080; &#1086;&#1073;&#1083;&#1110;&#1082;&#1086;&#1074;&#1080;&#1081; &#1079;&#1072;&#1087;&#1080;&#1089;</text><rect fill="#F1F1F1" height="33.9688" rx="12.5" ry="12.5" style="stroke:#181818;stroke-width:0.5;" width="182.4922" x="543.6006" y="598.2563"/><text fill="#000000" font-family="sans-serif" font-size="12" lengthAdjust="spacing" textLength="162.4922" x="553.6006" y="619.395">&#1053;&#1072;&#1076;&#1072;&#1090;&#1080; &#1076;&#1086;&#1089;&#1090;&#1091;&#1087; &#1076;&#1086; &#1089;&#1080;&#1089;&#1090;&#1077;&#1084;</text><rect fill="#F1F1F1" height="33.9688" rx="12.5" ry="12.5" style="stroke:#181818;stroke-width:0.5;" width="146.457" x="561.6182" y="652.2251"/><text fill="#000000" font-family="sans-serif" font-size="12" lengthAdjust="spacing" textLength="126.457" x="571.6182" y="673.3638">&#1042;&#1080;&#1076;&#1072;&#1090;&#1080; &#1086;&#1073;&#1083;&#1072;&#1076;&#1085;&#1072;&#1085;&#1085;&#1103;</text><line style="stroke:#000000;stroke-width:1.5;" x1="535.5469" x2="535.5469" y1="17.7451" y2="944.0688"/><rect fill="#F1F1F1" height="33.9688" rx="12.5" ry="12.5" style="stroke:#181818;stroke-width:0.5;" width="232.6602" x="738.1465" y="706.1938"/><text fill="#000000" font-family="sans-serif" font-size="12" lengthAdjust="spacing" textLength="212.6602" x="748.1465" y="727.3325">&#1055;&#1088;&#1077;&#1076;&#1089;&#1090;&#1072;&#1074;&#1080;&#1090;&#1080; &#1087;&#1088;&#1072;&#1094;&#1110;&#1074;&#1085;&#1080;&#1082;&#1072; &#1082;&#1086;&#1084;&#1072;&#1085;&#1076;&#1110;</text><rect fill="#F1F1F1" height="33.9688" rx="12.5" ry="12.5" style="stroke:#181818;stroke-width:0.5;" width="199.8535" x="754.5498" y="760.1626"/><text fill="#000000" font-family="sans-serif" font-size="12" lengthAdjust="spacing" textLength="179.8535" x="764.5498" y="781.3013">&#1055;&#1088;&#1080;&#1079;&#1085;&#1072;&#1095;&#1080;&#1090;&#1080; &#1087;&#1077;&#1088;&#1096;&#1110; &#1079;&#1072;&#1074;&#1076;&#1072;&#1085;&#1085;&#1103;</text><line style="stroke:#000000;stroke-width:1.5;" x1="732.1465" x2="732.1465" y1="17.7451" y2="944.0688"/><line style="stroke:#000000;stroke-width:1.5;" x1="974.8066" x2="974.8066" y1="17.7451" y2="944.0688"/><polygon fill="#181818" points="539.5469,284.4126,543.5469,274.4126,547.5469,284.4126,543.5469,280.4126" style="stroke:#181818;stroke-width:1;"/><line style="stroke:#181818;stroke-width:1;" x1="144.7764" x2="144.7764" y1="63.6982" y2="83.6982"/><polygon fill="#181818" points="140.7764,73.6982,144.7764,83.6982,148.7764,73.6982,144.7764,77.6982" style="stroke:#181818;stroke-width:1;"/><line style="stroke:#181818;stroke-width:1;" x1="144.7764" x2="144.7764" y1="117.667" y2="137.667"/><polygon fill="#181818" points="140.7764,127.667,144.7764,137.667,148.7764,127.667,144.7764,131.667" style="stroke:#181818;stroke-width:1;"/><line style="stroke:#181818;stroke-width:1;" x1="144.7764" x2="144.7764" y1="848.1001" y2="868.1001"/><polygon fill="#181818" points="140.7764,858.1001,144.7764,868.1001,148.7764,858.1001,144.7764,862.1001" style="stroke:#181818;stroke-width:1;"/><line style="stroke:#181818;stroke-width:1;" x1="144.7764" x2="144.7764" y1="902.0688" y2="922.0688"/><polygon fill="#181818" points="140.7764,912.0688,144.7764,922.0688,148.7764,912.0688,144.7764,916.0688" style="stroke:#181818;stroke-width:1;"/><line style="stroke:#181818;stroke-width:1;" x1="415.0498" x2="415.0498" y1="215.6357" y2="247.3462"/><polygon fill="#181818" points="411.0498,237.3462,415.0498,247.3462,419.0498,237.3462,415.0498,241.3462" style="stroke:#181818;stroke-width:1;"/><line style="stroke:#181818;stroke-width:1;" x1="341.0244" x2="286.5527" y1="203.6357" y2="203.6357"/><polygon fill="#181818" points="282.5527,276.4126,286.5527,286.4126,290.5527,276.4126,286.5527,280.4126" style="stroke:#181818;stroke-width:1;"/><line style="stroke:#181818;stroke-width:1;" x1="286.5527" x2="286.5527" y1="203.6357" y2="362.3813"/><line style="stroke:#181818;stroke-width:1;" x1="286.5527" x2="415.0498" y1="362.3813" y2="362.3813"/><line style="stroke:#181818;stroke-width:1;" x1="415.0498" x2="415.0498" y1="362.3813" y2="382.3813"/><polygon fill="#181818" points="411.0498,372.3813,415.0498,382.3813,419.0498,372.3813,415.0498,376.3813" style="stroke:#181818;stroke-width:1;"/><line style="stroke:#181818;stroke-width:1;" x1="415.0498" x2="415.0498" y1="416.3501" y2="436.3501"/><polygon fill="#181818" points="411.0498,426.3501,415.0498,436.3501,419.0498,426.3501,415.0498,430.3501" style="stroke:#181818;stroke-width:1;"/><line style="stroke:#181818;stroke-width:1;" x1="415.0498" x2="415.0498" y1="470.3188" y2="490.3188"/><polygon fill="#181818" points="411.0498,480.3188,415.0498,490.3188,419.0498,480.3188,415.0498,484.3188" style="stroke:#181818;stroke-width:1;"/><line style="stroke:#181818;stroke-width:1;" x1="634.8467" x2="634.8467" y1="578.2563" y2="598.2563"/><polygon fill="#181818" points="630.8467,588.2563,634.8467,598.2563,638.8467,588.2563,634.8467,592.2563" style="stroke:#181818;stroke-width:1;"/><line style="stroke:#181818;stroke-width:1;" x1="634.8467" x2="634.8467" y1="632.2251" y2="652.2251"/><polygon fill="#181818" points="630.8467,642.2251,634.8467,652.2251,638.8467,642.2251,634.8467,646.2251" style="stroke:#181818;stroke-width:1;"/><line style="stroke:#181818;stroke-width:1;" x1="854.4766" x2="854.4766" y1="740.1626" y2="760.1626"/><polygon fill="#181818" points="850.4766,750.1626,854.4766,760.1626,858.4766,750.1626,854.4766,754.1626" style="stroke:#181818;stroke-width:1;"/><line style="stroke:#181818;stroke-width:1;" x1="415.0498" x2="415.0498" y1="281.3149" y2="291.4126"/><line style="stroke:#181818;stroke-width:1;" x1="415.0498" x2="144.7764" y1="291.4126" y2="291.4126"/><line style="stroke:#181818;stroke-width:1;" x1="144.7764" x2="144.7764" y1="291.4126" y2="306.4126"/><polygon fill="#181818" points="140.7764,296.4126,144.7764,306.4126,148.7764,296.4126,144.7764,300.4126" style="stroke:#181818;stroke-width:1;"/><line style="stroke:#181818;stroke-width:1;" x1="144.7764" x2="144.7764" y1="340.3813" y2="350.3813"/><line style="stroke:#181818;stroke-width:1;" x1="144.7764" x2="543.5469" y1="350.3813" y2="350.3813"/><line style="stroke:#181818;stroke-width:1;" x1="543.5469" x2="543.5469" y1="203.6357" y2="350.3813"/><line style="stroke:#181818;stroke-width:1;" x1="543.5469" x2="489.0752" y1="203.6357" y2="203.6357"/><polygon fill="#181818" points="499.0752,199.6357,489.0752,203.6357,499.0752,207.6357,495.0752,203.6357" style="stroke:#181818;stroke-width:1;"/><line style="stroke:#181818;stroke-width:1;" x1="144.7764" x2="144.7764" y1="171.6357" y2="176.6357"/><line style="stroke:#181818;stroke-width:1;" x1="144.7764" x2="415.0498" y1="176.6357" y2="176.6357"/><line style="stroke:#181818;stroke-width:1;" x1="415.0498" x2="415.0498" y1="176.6357" y2="191.6357"/><polygon fill="#181818" points="411.0498,181.6357,415.0498,191.6357,419.0498,181.6357,415.0498,185.6357" style="stroke:#181818;stroke-width:1;"/><line style="stroke:#181818;stroke-width:1;" x1="415.0498" x2="415.0498" y1="524.2876" y2="529.2876"/><line style="stroke:#181818;stroke-width:1;" x1="415.0498" x2="634.8467" y1="529.2876" y2="529.2876"/><line style="stroke:#181818;stroke-width:1;" x1="634.8467" x2="634.8467" y1="529.2876" y2="544.2876"/><polygon fill="#181818" points="630.8467,534.2876,634.8467,544.2876,638.8467,534.2876,634.8467,538.2876" style="stroke:#181818;stroke-width:1;"/><line style="stroke:#181818;stroke-width:1;" x1="634.8467" x2="634.8467" y1="686.1938" y2="691.1938"/><line style="stroke:#181818;stroke-width:1;" x1="634.8467" x2="854.4766" y1="691.1938" y2="691.1938"/><line style="stroke:#181818;stroke-width:1;" x1="854.4766" x2="854.4766" y1="691.1938" y2="706.1938"/><polygon fill="#181818" points="850.4766,696.1938,854.4766,706.1938,858.4766,696.1938,854.4766,700.1938" style="stroke:#181818;stroke-width:1;"/><line style="stroke:#181818;stroke-width:1;" x1="854.4766" x2="854.4766" y1="794.1313" y2="799.1313"/><line style="stroke:#181818;stroke-width:1;" x1="854.4766" x2="144.7764" y1="799.1313" y2="799.1313"/><line style="stroke:#181818;stroke-width:1;" x1="144.7764" x2="144.7764" y1="799.1313" y2="814.1313"/><polygon fill="#181818" points="140.7764,804.1313,144.7764,814.1313,148.7764,804.1313,144.7764,808.1313" style="stroke:#181818;stroke-width:1;"/><text fill="#000000" font-family="sans-serif" font-size="18" lengthAdjust="spacing" textLength="98.1914" x="94.6807" y="34.4531">&#1055;&#1088;&#1072;&#1094;&#1110;&#1074;&#1085;&#1080;&#1082;</text><text fill="#000000" font-family="sans-serif" font-size="18" lengthAdjust="spacing" textLength="130.4209" x="336.3394" y="34.4531">HR &#1084;&#1077;&#1085;&#1077;&#1076;&#1078;&#1077;&#1088;</text><text fill="#000000" font-family="sans-serif" font-size="18" lengthAdjust="spacing" textLength="156.6123" x="555.5405" y="34.4531">IT &#1072;&#1076;&#1084;&#1110;&#1085;&#1110;&#1089;&#1090;&#1088;&#1072;&#1090;&#1086;&#1088;</text><text fill="#000000" font-family="sans-serif" font-size="18" lengthAdjust="spacing" textLength="173.3555" x="766.7988" y="34.4531">&#1050;&#1077;&#1088;&#1110;&#1074;&#1085;&#1080;&#1082; &#1082;&#1086;&#1084;&#1072;&#1085;&#1076;&#1080;</text><?plantuml-src XLD1IiDG4Dtd57zfhz0itEfMl81WmOAes8ARB58ZhJj1989GHRr038t6cBHNU7CZtqpIe3JY8l3__3TltfkP17YI48bC9KQA2ZcAm1kD3yx7Nj-UShn999V87LyJnyWIRrZA39b3AR5CP8hC9tgE10jI6NP1M24HIcIeBBIpv-eRlmNUaKaeaUzvGST3u5qS3Oy7RWjt6pmeM3tajU2radYxvuOZ8kSIzppd-hYdZfNgb0boIp43AhcoCfNSR0XK-pxJWwv-AEi_xh1YABKo8TEMnjNfR71ok3RtGiwYvx5tZt9bcMMZs0pyKe74RoR2EcIQrBXK3rIoeex8uODMDH1oCBEk119M3IAo3YPuro7ixZipM1eWhY5cTwcY-tZcCJMDZK9TWo-Y2-FFySdgsdc-JxhMOItKBivcev8ob8g-9KEBDcfBvyhL0rEDUB2bQLjYgy2MAMI1F6ZiijV6dAYiFxlvArbYlrtt3otANLcdMirhYMjxgQhy8QbZM_fuvLXYVBRMDzm-sJRMRji_wj9-Xz7uzEmR?></g></svg>